<?xml version="1.0" encoding="UTF-8" standalone="no"?>
<!-- Created with Inkscape (http://www.inkscape.org/) -->

<svg
   xmlns:dc="http://purl.org/dc/elements/1.1/"
   xmlns:cc="http://creativecommons.org/ns#"
   xmlns:rdf="http://www.w3.org/1999/02/22-rdf-syntax-ns#"
   xmlns:svg="http://www.w3.org/2000/svg"
   xmlns="http://www.w3.org/2000/svg"
   xmlns:sodipodi="http://sodipodi.sourceforge.net/DTD/sodipodi-0.dtd"
   xmlns:inkscape="http://www.inkscape.org/namespaces/inkscape"
   width="1024"
   height="1024"
   viewBox="0 0 1024 1024"
   version="1.1"
   id="svg8"
   inkscape:version="0.92.4 (unknown)"
   sodipodi:docname="lemmy-logo-solid.svg"
   inkscape:export-filename="/home/andres/Pictures/References/Logos/Lemmy/lemmy-white-space_no-alpha.png"
   inkscape:export-xdpi="300"
   inkscape:export-ydpi="300">
  <defs
     id="defs2" />
  <sodipodi:namedview
     id="base"
     pagecolor="#ffffff"
     bordercolor="#666666"
     borderopacity="1.0"
     inkscape:pageopacity="0.0"
     inkscape:pageshadow="2"
     inkscape:zoom="0.49497475"
     inkscape:cx="382.61395"
     inkscape:cy="508.5765"
     inkscape:document-units="px"
     inkscape:current-layer="layer1"
     showgrid="false"
     units="px"
     inkscape:showpageshadow="false"
     inkscape:window-width="1366"
     inkscape:window-height="740"
     inkscape:window-x="0"
     inkscape:window-y="0"
     inkscape:window-maximized="1"
     showguides="true"
     inkscape:guide-bbox="true"
     inkscape:snap-global="true" />
  <metadata
     id="metadata5">
    <rdf:RDF>
      <cc:Work
         rdf:about="">
        <dc:format>image/svg+xml</dc:format>
        <dc:type
           rdf:resource="http://purl.org/dc/dcmitype/StillImage" />
        <dc:title />
      </cc:Work>
    </rdf:RDF>
  </metadata>
  <g
     inkscape:label="Layer 1"
     inkscape:groupmode="layer"
     id="layer1"
     transform="translate(0,-26.066658)"
     style="display:inline">
    <path
       id="path1087"
       style="display:inline;opacity:1;fill:#ffffff;fill-opacity:1;stroke:#000000;stroke-width:28;stroke-linecap:round;stroke-linejoin:round;stroke-miterlimit:4;stroke-dasharray:none;stroke-opacity:1"
       d="m 370.4568,382.2936 c -4.21152,-38.82002 -43.69954,-95.40305 -87.66365,-120.72973 -69.2936,-39.91841 -145.92188,-36.88647 -183.854976,18.55635 -37.933096,55.44282 -8.512486,126.57811 56.588786,170.52361 37.59831,25.38008 93.63292,40.61292 133.39463,38.32179 M 653.54319,382.2936 c 4.21152,-38.82002 43.69954,-95.40305 87.66365,-120.72973 69.2936,-39.91841 145.92188,-36.88647 183.85498,18.55635 37.9331,55.44282 8.51249,126.57811 -56.58879,170.52361 -37.59831,25.38008 -93.63292,40.61292 -133.39463,38.32179"
       inkscape:connector-curvature="0"
       inkscape:label="ears" />
    <path
       style="display:inline;opacity:1;fill:#ffffff;fill-opacity:1;stroke:#000000;stroke-width:28;stroke-linecap:round;stroke-linejoin:round;stroke-miterlimit:4;stroke-dasharray:none;stroke-opacity:1"
       d="M 745.66245,576.11738 C 746.9301,442.43439 660.61747,352.34249 512,352.34249 c -148.61747,0 -235.85386,91.1103 -233.66245,223.77489 1.80521,109.28421 91.98103,208.54257 232.67118,208.54257 140.69015,0 233.6193,-99.45528 234.65372,-208.54257 z"
       id="path969"
       inkscape:connector-curvature="0"
       sodipodi:nodetypes="szszs"
       inkscape:label="head" />
    <path
       id="path1084"
       style="display:inline;opacity:1;fill:#000000;fill-opacity:1;stroke:#000000;stroke-width:0;stroke-linecap:round;stroke-linejoin:round;stroke-miterlimit:4;stroke-dasharray:none;stroke-opacity:1"
       d="m 599.83093,636.10901 c 0,20.56567 16.67996,37.23744 37.25573,37.23744 20.57577,0 37.25573,-16.67177 37.25573,-37.23744 0,-20.56568 -16.67995,-37.23745 -37.25573,-37.23745 -20.57577,0 -37.25573,16.67177 -37.25573,37.23745 z m -250.17332,0 c 0,20.75515 16.83364,37.58053 37.59899,37.58053 20.76534,0 37.59898,-16.82538 37.59898,-37.58053 0,-20.75516 -16.83363,-37.58054 -37.59898,-37.58054 -20.76535,0 -37.59899,16.82538 -37.59899,37.58054 z"
       inkscape:connector-curvature="0"
       inkscape:label="eyes"
       sodipodi:nodetypes="ssssssssss" />
    <path
       id="path1008"
       style="display:inline;fill:none;stroke:#000000;stroke-width:32;stroke-linecap:round;stroke-linejoin:miter;stroke-miterlimit:4;stroke-dasharray:none;stroke-opacity:1"
       d="m 358.38738,747.29948 -48.63668,64.26759 m 355.86191,-64.26759 48.63669,64.26759 M 277.70645,631.8233 194.14389,647.53759 m 552.14966,-15.71429 83.56256,15.71429"
       inkscape:connector-curvature="0"
       inkscape:label="whiskers"
       sodipodi:nodetypes="cccccccc" />
    <path
       style="display:inline;opacity:1;fill:#ffffff;fill-opacity:1;stroke:#000000;stroke-width:28;stroke-linecap:round;stroke-linejoin:round;stroke-miterlimit:4;stroke-dasharray:none;stroke-opacity:1"
       d="m 512,687.69141 c -37.69005,0 -61.74003,26.09705 -60.92773,58.26757 0.87969,34.83946 26.68193,58.26954 60.92773,58.26954 34.2458,0 60.85342,-27.04049 60.92773,-58.26954 C 573.00431,713.7783 549.69005,687.69141 512,687.69141 Z"
       transform="translate(0,26.066658)"
       id="path1115"
       inkscape:connector-curvature="0"
       inkscape:label="nose"
       sodipodi:nodetypes="zszsz" />
  </g>
</svg>
