<?xml version="1.0" encoding="UTF-8" standalone="no"?>
<!-- Created with Inkscape (http://www.inkscape.org/) -->

<svg
   xmlns:dc="http://purl.org/dc/elements/1.1/"
   xmlns:cc="http://creativecommons.org/ns#"
   xmlns:rdf="http://www.w3.org/1999/02/22-rdf-syntax-ns#"
   xmlns:svg="http://www.w3.org/2000/svg"
   xmlns="http://www.w3.org/2000/svg"
   xmlns:sodipodi="http://sodipodi.sourceforge.net/DTD/sodipodi-0.dtd"
   xmlns:inkscape="http://www.inkscape.org/namespaces/inkscape"
   width="1024"
   height="1024"
   viewBox="0 0 1024 1024"
   version="1.1"
   id="svg8"
   inkscape:version="0.92.4 (unknown)"
   sodipodi:docname="new-lemmy-logo-border.svg"
   inkscape:export-filename="/home/andres/Pictures/References/Logos/Lemmy/lemmy-white-space_no-alpha.png"
   inkscape:export-xdpi="300"
   inkscape:export-ydpi="300"
   enable-background="new">
  <defs
     id="defs2" />
  <sodipodi:namedview
     id="base"
     pagecolor="#ffffff"
     bordercolor="#666666"
     borderopacity="1.0"
     inkscape:pageopacity="0.0"
     inkscape:pageshadow="2"
     inkscape:zoom="0.49497475"
     inkscape:cx="472.22096"
     inkscape:cy="503.84244"
     inkscape:document-units="px"
     inkscape:current-layer="layer1"
     showgrid="false"
     units="px"
     inkscape:showpageshadow="false"
     inkscape:window-width="1366"
     inkscape:window-height="740"
     inkscape:window-x="0"
     inkscape:window-y="0"
     inkscape:window-maximized="1"
     showguides="true"
     inkscape:guide-bbox="true"
     inkscape:snap-global="false"
     inkscape:snap-midpoints="false"
     inkscape:snap-smooth-nodes="false"
     inkscape:object-paths="false" />
  <metadata
     id="metadata5">
    <rdf:RDF>
      <cc:Work
         rdf:about="">
        <dc:format>image/svg+xml</dc:format>
        <dc:type
           rdf:resource="http://purl.org/dc/dcmitype/StillImage" />
        <dc:title></dc:title>
      </cc:Work>
    </rdf:RDF>
  </metadata>
  <g
     inkscape:label="Layer 1"
     inkscape:groupmode="layer"
     id="layer1"
     transform="translate(0,-26.066658)"
     style="display:inline">
    <path
       id="path1087"
       style="display:inline;opacity:1;fill:#ffffff;fill-opacity:1;stroke:#000000;stroke-width:28;stroke-linecap:round;stroke-linejoin:round;stroke-miterlimit:4;stroke-dasharray:none;stroke-opacity:1"
       d="m 716.85594,362.96478 c 15.29075,-21.36763 35.36198,-41.10921 56.50979,-53.31749 66.66377,-38.48393 137.02617,-33.22172 170.08018,22.43043 33.09493,55.72093 14.98656,117.48866 -47.64399,159.85496 -31.95554,19.26819 -62.93318,30.92309 -97.22892,35.54473 M 307.14406,362.96478 C 291.85331,341.59715 271.78208,321.85557 250.63428,309.64729 183.9705,271.16336 113.6081,276.42557 80.554044,332.07772 c -33.09492,55.72093 -14.986531,117.48866 47.644036,159.85496 31.95554,19.26819 62.93319,30.92309 97.22893,35.54473"
       inkscape:connector-curvature="0"
       inkscape:label="ears" />
    <path
       style="display:inline;opacity:1;fill:#ffffff;fill-opacity:1;stroke:#000000;stroke-width:28;stroke-linecap:round;stroke-linejoin:round;stroke-miterlimit:4;stroke-dasharray:none;stroke-opacity:1"
       d="M 801.23204,576.8699 C 812.73477,427.06971 720.5843,321.98291 511.99998,325.38859 303.41567,328.79426 213.71392,428.0311 222.76793,576.8699 c 8.64289,142.08048 176.80223,246.40388 288.12038,246.40388 111.31815,0 279.45076,-104.5447 290.34373,-246.40388 z"
       id="path969"
       inkscape:connector-curvature="0"
       sodipodi:nodetypes="szszs"
       inkscape:label="head" />
    <path
       id="path1084"
       style="display:inline;opacity:1;fill:#000000;fill-opacity:1;stroke:#000000;stroke-width:0;stroke-linecap:round;stroke-linejoin:round;stroke-miterlimit:4;stroke-dasharray:none;stroke-opacity:1"
       d="m 610.49909,644.28932 c 0,23.11198 18.70595,41.84795 41.78091,41.84795 23.07495,0 41.7809,-18.73597 41.7809,-41.84795 0,-23.112 -18.70594,-41.84796 -41.7809,-41.84796 -23.07496,0 -41.78091,18.73596 -41.78091,41.84796 z m -280.56002,0 c 0,23.32492 18.87829,42.23352 42.16586,42.23352 23.28755,0 42.16585,-18.9086 42.16585,-42.23352 0,-23.32494 -18.87829,-42.23353 -42.16585,-42.23353 -23.28757,0 -42.16586,18.90859 -42.16586,42.23353 z"
       inkscape:connector-curvature="0"
       inkscape:label="eyes"
       sodipodi:nodetypes="ssssssssss" />
    <path
       id="path1008"
       style="display:inline;opacity:1;fill:none;stroke:#000000;stroke-width:32;stroke-linecap:round;stroke-linejoin:miter;stroke-miterlimit:4;stroke-dasharray:none;stroke-opacity:1"
       d="m 339.72918,769.2467 -54.54422,72.22481 m 399.08582,-72.22481 54.54423,72.22481 M 263.6834,697.82002 175.92751,733.64353 m 579.85765,-35.82351 87.7559,35.82351"
       inkscape:connector-curvature="0"
       inkscape:label="whiskers"
       sodipodi:nodetypes="cccccccc" />
    <path
       style="display:inline;opacity:1;fill:#ffffff;fill-opacity:1;stroke:#000000;stroke-width:28;stroke-linecap:round;stroke-linejoin:round;stroke-miterlimit:4;stroke-dasharray:none;stroke-opacity:1"
       d="m 512.00081,713.08977 c -45.86417,0 -75.13006,31.84485 -74.14159,71.10084 1.07048,42.51275 32.46865,71.10323 74.14159,71.10323 41.67296,0 74.05118,-32.99608 74.14161,-71.10323 0.0932,-39.26839 -28.27742,-71.10084 -74.14161,-71.10084 z"
       id="path1115"
       inkscape:connector-curvature="0"
       inkscape:label="nose"
       sodipodi:nodetypes="zszsz" />
  </g>
</svg>
